<svg width="199" height="68" viewBox="0 0 199 68" fill="none" xmlns="http://www.w3.org/2000/svg">
<path d="M82.142 49.4881C82.4912 49.4881 82.8404 49.3834 83.1548 49.3135V51.7582C82.5261 52.0027 81.7578 52.1424 80.9894 52.1424C79.5925 52.1424 78.4749 51.5836 77.9161 50.3612C76.4143 51.5836 74.5284 52.3519 72.1186 52.3519C69.3246 52.3519 66.7402 50.8153 66.7402 47.6371C66.7402 43.6907 70.3724 42.5032 73.5854 42.5032C74.9126 42.5032 76.3794 42.6778 77.5668 42.9572V42.3985C77.5668 40.4776 76.1699 39.1505 73.5505 39.1505C71.2804 39.1505 69.3945 39.7093 68.0324 40.3379V37.1947C69.2548 36.7756 71.455 36.1819 73.8998 36.1819C78.2304 36.1819 80.9894 38.2424 80.9894 42.8874V48.3705C81.0244 49.2087 81.5133 49.4881 82.142 49.4881ZM70.2676 47.3927C70.2676 48.8944 71.5947 49.6628 73.1314 49.6628C74.7729 49.6628 76.3445 49.069 77.5668 47.8467V45.2623C76.6239 45.0876 75.3317 44.8781 74.249 44.8781C72.3282 44.8781 70.2676 45.4718 70.2676 47.3927Z" fill="black"/>
<path d="M93.0379 36.1469C94.7492 36.1469 96.4256 36.531 97.7527 37.3343V40.4775C96.6351 39.6742 95.0635 39.1853 93.4919 39.1853C90.7678 39.1853 88.0437 40.6172 88.0437 44.2493C88.0437 47.7418 90.6979 49.3134 93.457 49.3134C95.0984 49.3134 96.705 48.8245 97.9273 48.126V51.3041C96.4605 52.0026 94.7841 52.3518 92.8633 52.3518C88.7771 52.3518 84.5861 49.8722 84.5861 44.389C84.5512 38.6265 88.9517 36.1469 93.0379 36.1469Z" fill="black"/>
<path d="M115.425 49.4881C115.774 49.4881 116.124 49.3834 116.438 49.3135V51.7582C115.809 52.0027 115.041 52.1424 114.273 52.1424C112.876 52.1424 111.758 51.5836 111.199 50.3612C109.698 51.5836 107.812 52.3519 105.402 52.3519C102.608 52.3519 100.023 50.8153 100.023 47.6371C100.023 43.6907 103.656 42.5032 106.869 42.5032C108.196 42.5032 109.663 42.6778 110.85 42.9572V42.3985C110.85 40.4776 109.453 39.1505 106.834 39.1505C104.564 39.1505 102.678 39.7093 101.316 40.3379V37.1947C102.538 36.7756 104.738 36.1819 107.183 36.1819C111.514 36.1819 114.273 38.2424 114.273 42.8874V48.3705C114.308 49.2087 114.831 49.4881 115.425 49.4881ZM103.586 47.3927C103.586 48.8944 104.913 49.6628 106.45 49.6628C108.091 49.6628 109.663 49.069 110.885 47.8467V45.2623C109.942 45.0876 108.65 44.8781 107.567 44.8781C105.611 44.8781 103.586 45.4718 103.586 47.3927Z" fill="black"/>
<path d="M134.423 29.5112V51.8979H131.35V49.4531C130.163 50.9549 128.346 52.282 125.483 52.282C120.838 52.282 117.869 48.615 117.869 44.1795C117.869 39.779 120.838 36.077 125.483 36.077C128.172 36.077 129.953 37.2645 131.001 38.4868V29.5112H134.423ZM126.076 39.1504C123.317 39.1504 121.327 41.2109 121.327 44.2494C121.327 47.2529 123.352 49.3134 126.076 49.3134C128.486 49.3134 130.232 47.7768 130.966 46.1004V42.3635C130.232 40.6871 128.486 39.1504 126.076 39.1504Z" fill="black"/>
<path d="M145.495 36.1469C151.607 36.1469 153.703 41.0712 152.725 45.5066H141.2C141.584 48.2657 144.273 49.4182 147.067 49.4182C148.918 49.4182 150.629 48.9642 151.922 48.3355V51.2692C150.525 51.9327 148.569 52.3169 146.438 52.3169C141.724 52.3169 137.742 49.6277 137.742 44.2144C137.742 38.6614 141.968 36.1469 145.495 36.1469ZM145.67 38.9757C143.365 38.9757 141.304 40.3378 141.165 42.9222H149.651C149.861 41.5951 149.023 38.9757 145.67 38.9757Z" fill="black"/>
<path d="M156.217 51.8978V36.5659H159.255V38.4868C160.093 37.5438 161.875 36.1469 164.354 36.1469C166.659 36.1469 168.266 37.0898 169.139 38.5916C170.466 37.2644 172.282 36.1469 174.517 36.1469C178.569 36.1469 180.35 39.1504 180.35 42.3285V51.9327H176.927V42.4333C176.927 40.4426 175.74 39.2202 173.889 39.2202C172.212 39.2202 170.885 40.3378 170.082 41.2808C170.117 41.63 170.152 41.9792 170.152 42.3285V51.9327H166.729V42.4333C166.729 40.4426 165.542 39.2202 163.691 39.2202C161.84 39.2202 160.443 40.5473 159.639 41.5951V51.9327H156.217V51.8978Z" fill="black"/>
<path d="M195.436 36.5659H198.998L191.804 53.9933C190.128 57.9747 187.962 59.3367 185.622 59.3367C184.959 59.3367 184.295 59.2319 183.597 59.0922V56.1935C184.121 56.3681 184.645 56.4031 185.168 56.4031C186.845 56.4031 188.067 55.2156 188.975 52.8408L189.289 52.0724L181.99 36.6008H185.622L190.791 48.1609L195.436 36.5659Z" fill="black"/>
<path d="M71.282 2.6543V11.3854C72.3996 10.2329 74.1458 9.28996 76.2413 9.28996C80.1179 9.28996 82.5626 11.9093 82.5626 15.5415V25.0409H79.14V15.9955C79.14 13.5158 77.6033 12.3284 75.5777 12.3284C73.6219 12.3284 72.1551 13.6555 71.282 14.8779V25.0409H67.8594V2.6543H71.282Z" fill="black"/>
<path d="M91.9221 4.22595V9.67418H97.4751V12.6777H91.9221V19.6975C91.9221 21.7231 92.8651 22.3867 94.8208 22.3867C95.9384 22.3867 96.9512 22.1772 97.9291 21.793V24.7267C96.7766 25.1458 95.3098 25.3902 93.808 25.3902C90.8394 25.3902 88.5344 23.9234 88.5344 20.3262V12.6428H85.7754V9.63926H88.5344V5.06414L91.9221 4.22595Z" fill="black"/>
<path d="M101.875 25.0409V9.70901H104.913V11.6299C105.752 10.6869 107.533 9.28992 110.012 9.28992C112.317 9.28992 113.924 10.2329 114.797 11.7346C116.124 10.4075 117.94 9.28992 120.175 9.28992C124.227 9.28992 126.008 12.2934 126.008 15.4716V25.0758H122.585V15.5414C122.585 13.5507 121.398 12.3284 119.547 12.3284C117.87 12.3284 116.543 13.4459 115.74 14.3889C115.775 14.7381 115.81 15.0874 115.81 15.4366V25.0409H112.387V15.5414C112.387 13.5507 111.2 12.3284 109.349 12.3284C107.498 12.3284 106.101 13.6555 105.298 14.7032V25.0409H101.875Z" fill="black"/>
<path d="M134.425 2.6543H131.002V25.0409H134.425V2.6543Z" fill="black"/>
<path d="M27.0665 0.0349245L26.7871 0L0 2.79396V51.8979L26.7871 67.8234L53.5742 51.8979V2.79396L27.0665 0.0349245ZM50.0818 49.9072L26.7871 63.7722L3.49245 49.9072V29.7906L26.6823 43.5858L26.7173 46.1004L10.8266 36.6358L10.7917 39.0806L26.7522 48.6848L26.7871 51.2343L10.8266 41.6999L10.7917 44.1446L26.7522 53.7489L42.8873 44.1097V41.665H42.8524V40.8268V39.814V33.7371L50.0469 29.4414V49.9072H50.0818ZM50.0469 26.822L43.6906 30.559L40.7569 32.3052L26.7173 23.9932L26.6823 26.4379L38.6615 33.5276L38.5567 33.5974L38.3122 33.7371L36.6009 34.7499L26.7173 28.8826L26.6823 31.3273L34.5054 35.9723L32.6544 37.1946L32.6195 37.2296L26.7173 33.7371L26.6823 36.1818L30.559 38.4519L26.6125 40.8268L3.5623 27.1014L26.6474 13.2015L50.0469 26.822ZM50.0818 24.4123L26.6823 10.6171L3.49245 24.3773V5.9721L26.7871 3.52738L50.0818 5.9721V24.4123Z" fill="black"/>
</svg>
